<svg xmlns="http://www.w3.org/2000/svg" width="122" height="122" viewBox="0 0 122 122" fill="none">
<g clip-path="url(#clip0_190_6219)">
<path d="M79.3531 92.7543C96.8909 82.6288 102.899 60.2046 92.774 42.6667C82.6485 25.1288 60.2243 19.1203 42.6864 29.2458C25.1485 39.3713 19.14 61.7955 29.2655 79.3334C39.391 96.8712 61.8152 102.88 79.3531 92.7543Z" fill="white"/>
<path d="M72.845 51.9287L57.8187 47.9024C57.1148 47.7183 56.3667 47.819 55.7366 48.1828C55.1065 48.5466 54.6452 49.1441 54.4527 49.8457C54.0635 51.2983 54.9435 52.8225 56.3961 53.2117L65.0111 55.5201L48.5307 65.0351C47.2288 65.7868 46.7724 67.4897 47.5241 68.7917C48.2758 70.0936 49.9788 70.5499 51.2807 69.7982L67.7611 60.2832L65.4527 68.8983C65.0635 70.3508 65.9435 71.875 67.3961 72.2643C68.1474 72.4656 68.8791 72.3395 69.4824 71.9912C70.0857 71.6428 70.5607 71.0722 70.762 70.3209L74.7883 55.2946C75.1775 53.8421 74.2975 52.3179 72.845 51.9287Z" fill="#F9AB00"/>
</g>
<defs>
<clipPath id="clip0_190_6219">
<rect width="88" height="88" fill="white" transform="translate(0.914551 44.895) rotate(-30)"/>
</clipPath>
</defs>
</svg>