<svg width="33" height="32" viewBox="0 0 33 32" fill="none" xmlns="http://www.w3.org/2000/svg">
<path d="M3.16634 16C3.16634 23.364 9.13568 29.3333 16.4997 29.3333C23.8637 29.3333 29.833 23.364 29.833 16C29.833 8.636 23.8637 2.66667 16.4997 2.66667C9.13568 2.66667 3.16634 8.63601 3.16634 16Z" fill="black"/>
<path d="M17.2068 21.3733L21.2068 17.3733C21.3928 17.1851 21.4971 16.9312 21.4971 16.6667C21.4971 16.4021 21.3928 16.1482 21.2068 15.96C20.8201 15.5733 20.1801 15.5733 19.7935 15.96L17.5001 18.2533L17.5001 11.3333C17.5001 10.7867 17.0468 10.3333 16.5001 10.3333C15.9535 10.3333 15.5001 10.7867 15.5001 11.3333L15.5001 18.2533L13.2068 15.96C12.8201 15.5733 12.1801 15.5733 11.7935 15.96C11.5935 16.16 11.5001 16.4133 11.5001 16.6667C11.5001 16.92 11.5935 17.1733 11.7935 17.3733L15.7935 21.3733C16.1801 21.76 16.8201 21.76 17.2068 21.3733Z" fill="white"/>
</svg>
