<svg width="73" height="71" viewBox="0 0 73 71" fill="none" xmlns="http://www.w3.org/2000/svg">
<g clip-path="url(#clip0_386_257)">
<path d="M33.5003 6C15.2771 6 0.5 20.6893 0.5 38.8102C0.5 53.3065 9.95558 65.6052 23.0676 69.9436C24.7168 70.2473 25.3223 69.2319 25.3223 68.3653C25.3223 67.5829 25.2917 64.9983 25.2775 62.2567C16.0968 64.2414 14.1596 58.3855 14.1596 58.3855C12.6584 54.5931 10.4955 53.5847 10.4955 53.5847C7.50138 51.5483 10.7212 51.5902 10.7212 51.5902C14.035 51.8216 15.7799 54.9713 15.7799 54.9713C18.7232 59.9872 23.4999 58.5371 25.383 57.6987C25.6792 55.5782 26.5344 54.1308 27.4782 53.3114C20.1484 52.4818 12.4431 49.6684 12.4431 37.0965C12.4431 33.5144 13.7322 30.5875 15.8433 28.2898C15.5006 27.4634 14.3711 24.1263 16.1629 19.607C16.1629 19.607 18.9341 18.7252 25.2404 22.9701C27.8727 22.2432 30.6958 21.8786 33.5003 21.8661C36.3048 21.8786 39.13 22.2432 41.7673 22.9701C48.0659 18.7252 50.8332 19.607 50.8332 19.607C52.6295 24.1263 51.4994 27.4634 51.1567 28.2898C53.2727 30.5875 54.5531 33.5144 54.5531 37.0965C54.5531 49.6983 46.8331 52.4731 39.4847 53.2853C40.6683 54.3035 41.723 56.3002 41.723 59.3613C41.723 63.7514 41.6848 67.2846 41.6848 68.3653C41.6848 69.2384 42.2788 70.2615 43.9515 69.9393C57.0564 65.5959 66.5 53.3016 66.5 38.8102C66.5 20.6893 51.7251 6 33.5003 6ZM12.8597 52.7388C12.787 52.9017 12.5291 52.9506 12.2941 52.8387C12.0547 52.7317 11.9203 52.5095 11.9979 52.3459C12.0689 52.178 12.3274 52.1313 12.5662 52.2438C12.8061 52.3508 12.9427 52.5752 12.8597 52.7388ZM14.4829 54.1788C14.3255 54.3239 14.0179 54.2565 13.8091 54.0272C13.5933 53.7985 13.5528 53.4926 13.7124 53.3454C13.8747 53.2003 14.1731 53.2682 14.3895 53.4969C14.6053 53.7284 14.6474 54.0321 14.4829 54.1788ZM15.5965 56.0213C15.3943 56.1609 15.0637 56.03 14.8593 55.7382C14.6571 55.4465 14.6571 55.0966 14.8637 54.9564C15.0686 54.8162 15.3943 54.9423 15.6014 55.2319C15.8031 55.5285 15.8031 55.8784 15.5965 56.0213ZM17.4799 58.1552C17.299 58.3535 16.9137 58.3003 16.6318 58.0297C16.3432 57.7651 16.2629 57.3897 16.4443 57.1913C16.6274 56.9925 17.0148 57.0484 17.299 57.3168C17.5854 57.5809 17.6728 57.9591 17.4799 58.1552ZM19.9139 58.8756C19.8341 59.1326 19.4631 59.2494 19.0893 59.1402C18.7161 59.0277 18.4718 58.7267 18.5472 58.467C18.6248 58.2084 18.9975 58.0867 19.374 58.2035C19.7467 58.3154 19.9915 58.6142 19.9139 58.8756ZM22.684 59.1811C22.6933 59.4517 22.3763 59.6761 21.9839 59.681C21.5894 59.6897 21.2703 59.4707 21.2659 59.2045C21.2659 58.9312 21.5757 58.709 21.9703 58.7025C22.3627 58.6949 22.684 58.9122 22.684 59.1811ZM25.4052 59.0774C25.4522 59.3415 25.1796 59.6126 24.7899 59.6849C24.4068 59.7544 24.0522 59.5914 24.0035 59.3295C23.956 59.0589 24.2336 58.7878 24.6161 58.7177C25.0063 58.6504 25.3555 58.809 25.4052 59.0774Z" fill="#161614"/>
</g>
<defs>
<clipPath id="clip0_386_257">
<rect width="72" height="70.3125" fill="white" transform="translate(0.5)"/>
</clipPath>
</defs>
</svg>
