<svg width="149" height="49" viewBox="0 0 149 49" fill="none" xmlns="http://www.w3.org/2000/svg">
<path d="M19.0133 17.2835V22.4108H30.9675C30.6502 25.2472 29.6981 27.429 28.217 28.8472C26.5244 30.5926 23.7738 32.5563 19.0133 32.5563C11.7137 32.5563 6.00108 26.4472 6.00108 18.9199C6.00108 11.3926 11.608 5.28352 19.0133 5.28352C22.9275 5.28352 25.8896 6.91989 28.0054 8.99261L31.4965 5.39261C28.5344 2.44716 24.5143 0.15625 19.0133 0.15625C8.9632 0.15625 0.5 8.55625 0.5 18.9199C0.5 29.2835 8.9632 37.6835 19.0133 37.6835C24.4086 37.6835 28.5344 35.829 31.7081 32.4472C34.9876 29.0653 36.0455 24.2653 36.0455 20.4472C36.0455 19.2472 35.9397 18.1562 35.8339 17.2835H19.0133Z" fill="#4285F4"/>
<path d="M50.8558 13.029C44.4026 13.029 39.0073 18.1562 39.0073 25.1381C39.0073 32.1199 44.2968 37.2472 50.8558 37.2472C57.4148 37.2472 62.7043 32.229 62.7043 25.2472C62.7043 18.1562 57.4148 13.029 50.8558 13.029ZM50.8558 32.5562C47.2589 32.5562 44.191 29.5017 44.191 25.2472C44.191 20.8835 47.2589 17.9381 50.8558 17.9381C54.4527 17.9381 57.5206 20.8835 57.5206 25.2472C57.5206 29.5017 54.4527 32.5562 50.8558 32.5562Z" fill="#EA4335"/>
<path d="M108.723 15.7562H108.512C107.348 14.3381 105.127 13.029 102.27 13.029C96.346 13.029 91.2681 18.2653 91.2681 25.1381C91.2681 31.9017 96.346 37.2472 102.27 37.2472C105.127 37.2472 107.348 35.9381 108.512 34.5199H108.723V36.2653C108.723 40.8472 106.29 43.3562 102.482 43.3562C99.3081 43.3562 97.4039 41.0653 96.5576 38.9926L92.1144 40.9562C93.3839 44.1199 96.8749 48.1562 102.588 48.1562C108.618 48.1562 113.801 44.4472 113.801 35.5017V13.6835H108.935V15.7562H108.723ZM102.799 32.5562C99.2023 32.5562 96.5576 29.3926 96.5576 25.2472C96.5576 20.9926 99.3081 17.9381 102.799 17.9381C106.29 17.9381 109.041 21.1017 109.041 25.3562C109.147 29.5017 106.396 32.5562 102.799 32.5562Z" fill="#4285F4"/>
<path d="M77.1976 13.029C70.7444 13.029 65.3491 18.1562 65.3491 25.1381C65.3491 32.1199 70.6386 37.2472 77.1976 37.2472C83.7566 37.2472 89.0461 32.229 89.0461 25.2472C89.0461 18.1562 83.7566 13.029 77.1976 13.029ZM77.1976 32.5562C73.6007 32.5562 70.5328 29.5017 70.5328 25.2472C70.5328 20.8835 73.6007 17.9381 77.1976 17.9381C80.7945 17.9381 83.8624 20.8835 83.8624 25.2472C83.8624 29.5017 80.7945 32.5562 77.1976 32.5562Z" fill="#FBBC05"/>
<path d="M117.715 0.701706H122.793V37.3563H117.715V0.701706Z" fill="#34A853"/>
<path d="M138.45 32.5562C135.805 32.5562 134.007 31.3562 132.737 28.8472L148.5 22.1926L147.971 20.7744C147.019 18.0472 143.951 13.029 137.921 13.029C131.891 13.029 126.813 17.9381 126.813 25.1381C126.813 31.9017 131.785 37.2472 138.45 37.2472C143.845 37.2472 146.913 33.8653 148.288 31.9017L144.268 29.1744C142.893 31.2472 141.095 32.5562 138.45 32.5562ZM138.133 17.6108C140.248 17.6108 142.047 18.7017 142.576 20.229L131.997 24.8108C131.891 19.7926 135.488 17.6108 138.133 17.6108Z" fill="#EA4335"/>
</svg>
