<svg width="131" height="65" viewBox="0 0 131 65" fill="none" xmlns="http://www.w3.org/2000/svg">
<g clip-path="url(#clip0_386_254)">
<path d="M65.4989 0.15625C29.6011 0.15625 0.5 14.4843 0.5 32.1562C0.5 49.8282 29.6011 64.1562 65.4989 64.1562C101.397 64.1562 130.5 49.8282 130.5 32.1562C130.5 14.4843 101.394 0.15625 65.4989 0.15625ZM65.4989 59.1055C32.4353 59.1055 5.63185 47.0398 5.63185 32.1562C5.63185 17.2727 32.4353 5.20924 65.4989 5.20924C98.5624 5.20924 125.368 17.2727 125.368 32.1562C125.368 47.0398 98.5647 59.1055 65.4989 59.1055ZM57.3035 26.5433V21.4903H75.6479V26.5433H69.0439V42.8289H63.9052V26.5433H57.3035ZM97.7759 21.4903V42.8289H92.644L83.3365 30.1287V42.8289H78.2069V21.4903H83.3365L92.644 34.1905V21.4903H97.7759ZM33.0728 42.8289V21.4903H38.2047L43.9052 30.1242L49.6057 21.4903H54.7376V42.8289H49.6057V30.7564L45.7075 36.647H42.096L38.1978 30.7564V42.8289H33.0728Z" fill="#1D1D1B"/>
</g>
<defs>
<clipPath id="clip0_386_254">
<rect width="130" height="64" fill="white" transform="translate(0.5 0.15625)"/>
</clipPath>
</defs>
</svg>
