<svg width="301" height="54" viewBox="0 0 301 54" fill="none" xmlns="http://www.w3.org/2000/svg">
<g clip-path="url(#clip0_386_249)">
<path d="M43.1586 5.74425H2.959C1.67603 5.74425 0.49998 6.80425 0.49998 8.18225V12.6342C0.49998 14.0122 1.67603 15.1782 2.959 15.1782H43.1586C44.5484 15.1782 45.6176 14.0122 45.7245 12.6342V8.28825C45.7245 6.80425 44.5484 5.74425 43.1586 5.74425ZM43.1586 30.7602H2.959C2.31751 30.7602 1.67603 31.0782 1.14146 31.5022C0.713808 31.9262 0.393066 32.5622 0.393066 33.3042V37.7562C0.393066 39.1343 1.56912 40.3003 2.85208 40.3003H43.0517C44.4415 40.3003 45.5107 39.2402 45.6176 37.7562V33.3042C45.7245 31.8202 44.5484 30.7602 43.1586 30.7602ZM25.6247 43.1623H2.959C2.31751 43.1623 1.67603 43.3742 1.24838 43.9043C0.820721 44.3283 0.49998 44.9642 0.49998 45.7062V50.1583C0.49998 51.5363 1.67603 52.7022 2.959 52.7022H25.5178C26.9077 52.7022 27.9768 51.5363 27.9768 50.1583V45.6003C28.0837 44.3283 27.0146 43.1623 25.6247 43.1623ZM45.7245 18.2522H2.959C2.31751 18.2522 1.67603 18.4642 1.24838 18.9942C0.820721 19.4182 0.49998 20.0542 0.49998 20.7962V25.2483C0.49998 26.6262 1.67603 27.7922 2.959 27.7922H45.6176C47.0075 27.7922 48.0766 26.6262 48.0766 25.2483V20.7962C48.1835 19.3122 47.1144 18.2522 45.7245 18.2522Z" fill="#00C3F7"/>
<path d="M92.4458 15.8142C91.1629 14.5422 89.773 13.5882 88.0624 12.8462C86.4587 12.1042 84.6411 11.7862 82.8236 11.7862C81.113 11.7862 79.4024 12.1042 77.7987 12.8462C76.7295 13.3762 75.7673 14.0122 75.0189 14.8602V14.1182C75.0189 13.6942 74.8051 13.3762 74.5913 13.0582C74.2705 12.7402 73.9498 12.5282 73.5221 12.5282H67.8557C67.428 12.5282 67.0004 12.7402 66.7865 13.0582C66.4658 13.3762 66.3589 13.6942 66.3589 14.1182V51.2182C66.3589 51.6422 66.5727 51.9602 66.7865 52.2782C67.1073 52.5962 67.428 52.7022 67.8557 52.7022H73.5221C73.9498 52.7022 74.2705 52.5962 74.5913 52.2782C74.912 51.9602 75.0189 51.6422 75.0189 51.2182V38.4982C75.8742 39.3462 76.8364 40.0882 78.0125 40.4062C79.5093 40.9362 81.113 41.2542 82.6098 41.2542C84.4273 41.2542 86.2448 40.9362 87.8486 40.1942C89.5592 39.5582 91.056 38.4982 92.232 37.2262C93.515 35.8482 94.5841 34.2582 95.2256 32.5622C95.974 30.6542 96.4017 28.5342 96.2947 26.5202C96.2947 24.4002 95.974 22.3862 95.2256 20.3722C94.7979 18.7822 93.7288 17.1922 92.4458 15.8142ZM87.4209 29.2762C87.1002 30.0182 86.6725 30.7602 86.1379 31.3962C84.9619 32.6682 83.3582 33.3042 81.6476 33.3042C80.7922 33.3042 79.9369 33.0922 79.1885 32.7742C78.4401 32.4562 77.6917 31.9262 77.1572 31.3962C76.6226 30.7602 76.088 30.0182 75.7673 29.2762C75.1258 27.5802 75.1258 25.7782 75.7673 24.0822C76.088 23.3403 76.5157 22.5982 77.1572 21.9622C77.7987 21.3263 78.4401 20.9023 79.1885 20.4783C79.9369 20.1602 80.7922 19.9482 81.6476 19.9482C82.5029 19.9482 83.3582 20.1602 84.2135 20.4783C84.9619 20.7962 85.6034 21.3262 86.2448 21.8562C86.7794 22.4922 87.2071 23.1282 87.5278 23.9762C88.0624 25.6722 88.0624 27.5802 87.4209 29.2762ZM127.193 12.6342H121.526C121.099 12.6342 120.778 12.8462 120.457 13.0582C120.137 13.3762 120.03 13.8002 120.03 14.2242V14.8602C119.281 14.0122 118.426 13.3762 117.464 12.9522C115.967 12.2102 114.256 11.8923 112.546 11.8923C108.911 11.8923 105.382 13.3762 102.816 15.9202C101.534 17.2982 100.464 18.8882 99.716 20.5842C98.8607 22.4922 98.5399 24.6122 98.5399 26.7322C98.5399 28.8522 98.8607 30.9722 99.716 32.8802C100.464 34.5762 101.534 36.1662 102.816 37.5442C105.382 40.0882 108.804 41.5722 112.439 41.5722C114.149 41.5722 115.86 41.2542 117.357 40.5122C118.319 39.9822 119.281 39.3462 119.923 38.6042V39.3462C119.923 39.7702 120.137 40.0882 120.35 40.4062C120.671 40.6182 120.992 40.8302 121.419 40.8302H127.086C127.514 40.8302 127.834 40.6182 128.155 40.4062C128.476 40.0882 128.583 39.7702 128.583 39.3462V14.2242C128.583 13.8002 128.476 13.4822 128.155 13.1642C127.941 12.7402 127.62 12.6342 127.193 12.6342ZM119.495 29.1702C119.174 29.9122 118.747 30.6542 118.212 31.2902C117.677 31.8202 116.929 32.3502 116.181 32.7742C114.577 33.5162 112.759 33.5162 111.156 32.7742C110.407 32.4562 109.659 31.9262 109.124 31.2902C108.59 30.6542 108.055 29.9122 107.841 29.1702C107.2 27.4742 107.2 25.6722 107.841 23.9762C108.162 23.2342 108.59 22.4922 109.124 21.8562C109.659 21.2202 110.407 20.7962 111.156 20.3722C112.759 19.6302 114.577 19.6302 116.181 20.3722C116.929 20.6902 117.571 21.2202 118.212 21.7502C118.747 22.3862 119.174 23.0222 119.495 23.8702C120.243 25.6722 120.243 27.5802 119.495 29.1702ZM183.536 25.8842C182.681 25.1422 181.826 24.6122 180.757 24.1882C179.687 23.7642 178.618 23.4462 177.442 23.2342L173.166 22.3862C172.097 22.1742 171.241 21.8562 170.814 21.5382C170.493 21.3263 170.279 20.9023 170.279 20.4783C170.279 20.0542 170.493 19.6302 171.134 19.3123C171.883 18.8883 172.738 18.6762 173.486 18.7822C174.556 18.7822 175.732 18.9942 176.694 19.4182C177.656 19.8422 178.618 20.3722 179.474 20.9022C180.757 21.6442 181.826 21.5382 182.574 20.6902L184.605 18.3582C185.033 17.9342 185.247 17.4042 185.247 16.8742C185.247 16.3442 184.926 15.7082 184.499 15.3902C183.643 14.6482 182.253 13.8002 180.329 13.0582C178.511 12.3162 176.159 11.8923 173.38 11.8923C171.669 11.8923 170.065 12.1042 168.462 12.6342C167.072 13.0582 165.789 13.6943 164.72 14.5422C163.65 15.2842 162.902 16.3442 162.261 17.5102C161.726 18.6762 161.405 19.8422 161.405 21.1142C161.405 23.4462 162.154 25.3542 163.543 26.7322C164.933 28.1102 166.751 29.0642 169.103 29.4882L173.593 30.4422C174.556 30.6542 175.518 30.8662 176.48 31.2902C177.015 31.5022 177.335 31.9262 177.335 32.5622C177.335 33.0922 177.122 33.5162 176.48 33.9402C175.945 34.3642 174.983 34.5762 173.807 34.5762C172.631 34.5762 171.348 34.3642 170.279 33.8342C169.21 33.3042 168.248 32.6682 167.392 31.9262C166.965 31.6082 166.537 31.3962 166.109 31.1842C165.575 31.0782 164.933 31.1842 164.292 31.7142L161.833 33.6222C161.191 34.1522 160.764 35.0002 160.978 35.7422C161.084 36.5902 161.833 37.3322 163.009 38.2862C166.109 40.4062 169.851 41.4662 173.593 41.3602C175.304 41.3602 177.122 41.1482 178.725 40.6182C180.222 40.1942 181.505 39.5582 182.681 38.6042C183.75 37.7562 184.712 36.6963 185.247 35.5303C185.888 34.3643 186.102 33.0922 186.102 31.7142C186.102 30.5482 185.888 29.3822 185.354 28.2162C184.926 27.4742 184.285 26.6262 183.536 25.8842ZM208.127 32.6682C207.913 32.2442 207.378 31.9262 206.844 31.8202C206.309 31.8202 205.774 32.0322 205.347 32.2442C204.705 32.6682 203.85 32.9862 202.995 32.9862C202.781 32.9862 202.46 32.9862 202.139 32.8802C201.819 32.8802 201.605 32.6682 201.391 32.4562C201.177 32.2442 200.963 31.9262 200.749 31.6082C200.536 31.1842 200.429 30.6542 200.536 30.1242V19.9482H207.913C208.34 19.9482 208.768 19.7362 209.089 19.4182C209.41 19.1003 209.623 18.7822 209.623 18.3582V14.0122C209.623 13.5883 209.41 13.1642 209.089 12.9522C208.768 12.6342 208.447 12.5282 208.02 12.5282H200.643V5.63825C200.643 5.21425 200.536 4.79025 200.215 4.57825C199.894 4.26025 199.573 4.15425 199.146 4.15425H193.479C193.052 4.15425 192.624 4.26025 192.41 4.57825C192.089 4.89625 191.983 5.32025 191.983 5.63825V12.6342H188.775C188.347 12.6342 187.92 12.8462 187.706 13.1642C187.385 13.4822 187.278 13.8002 187.278 14.2242V18.5702C187.278 18.9942 187.385 19.3122 187.706 19.6302C187.92 19.9482 188.347 20.1602 188.775 20.1602H191.983V32.2442C191.983 33.7282 192.196 35.1063 192.838 36.3783C193.372 37.4382 194.121 38.3922 194.976 39.1342C195.831 39.8762 196.901 40.4062 198.077 40.7242C199.253 41.0422 200.429 41.2542 201.605 41.2542C203.209 41.2542 204.705 41.0422 206.202 40.5122C207.592 40.0882 208.875 39.2402 209.837 38.2862C210.479 37.6502 210.586 36.5902 210.051 35.8482L208.127 32.6682ZM239.132 12.6342H233.465C233.037 12.6342 232.717 12.8462 232.396 13.0582C232.075 13.3762 231.968 13.8002 231.968 14.2242V14.8602C231.22 14.0122 230.365 13.3762 229.402 12.9522C227.906 12.2102 226.195 11.8923 224.484 11.8923C220.849 11.8923 217.428 13.3762 214.862 15.9202C213.579 17.2982 212.51 18.8882 211.762 20.5842C210.906 22.4922 210.586 24.6122 210.586 26.6262C210.586 28.7462 210.906 30.7602 211.762 32.7742C212.51 34.4702 213.579 36.0602 214.862 37.4382C217.428 39.9823 220.849 41.4662 224.484 41.4662C226.195 41.4662 227.906 41.1482 229.402 40.4062C230.365 39.8762 231.327 39.2402 231.968 38.4982V39.2402C231.968 39.6642 232.075 39.9823 232.396 40.3003C232.717 40.6182 233.037 40.7242 233.465 40.7242H239.132C239.987 40.7242 240.628 40.0882 240.628 39.2402V14.2242C240.628 13.8002 240.521 13.4822 240.201 13.1642C239.88 12.7402 239.559 12.6342 239.132 12.6342ZM231.434 29.1702C231.113 29.9122 230.685 30.6542 230.151 31.2902C229.509 31.8202 228.868 32.3502 228.119 32.7742C227.371 33.0922 226.409 33.3042 225.553 33.3042C224.698 33.3042 223.843 33.0922 223.094 32.7742C222.346 32.4562 221.598 31.9262 221.063 31.2902C220.529 30.6542 219.994 29.9122 219.78 29.1702C219.139 27.4742 219.139 25.6722 219.78 23.9762C220.101 23.2342 220.529 22.4922 221.063 21.8562C221.705 21.2202 222.346 20.7962 223.094 20.3722C223.843 20.0542 224.698 19.8422 225.553 19.8422C226.409 19.8422 227.264 20.0542 228.119 20.3722C228.868 20.6902 229.509 21.2202 230.151 21.7502C230.685 22.3862 231.22 23.0222 231.434 23.8702C232.182 25.6722 232.182 27.5802 231.434 29.1702ZM270.137 32.2442L266.929 29.8062C266.288 29.2762 265.753 29.1702 265.218 29.3822C264.791 29.5942 264.363 29.9122 264.042 30.2302C263.294 31.0782 262.546 31.8202 261.583 32.4562C260.621 32.9862 259.552 33.3042 258.376 33.1982C257.093 33.1982 255.917 32.8802 254.848 32.1382C253.779 31.3962 253.03 30.3362 252.603 29.1702C252.282 28.3222 252.175 27.4742 252.175 26.6262C252.175 25.7782 252.282 24.8242 252.603 23.9762C252.923 23.2342 253.351 22.4922 253.886 21.8562C254.527 21.2202 255.169 20.7962 255.917 20.4783C256.665 20.1602 257.628 19.9482 258.483 19.9482C259.552 19.9482 260.728 20.1602 261.583 20.6902C262.546 21.3262 263.294 22.0682 264.042 22.9162C264.363 23.2342 264.791 23.5522 265.218 23.7642C265.753 23.9762 266.288 23.8702 266.929 23.3402L270.137 20.9022C270.564 20.5842 270.885 20.2662 270.992 19.8422C271.206 19.3123 271.099 18.7822 270.885 18.3582C269.602 16.4502 267.891 14.8602 265.86 13.6942C263.722 12.5282 261.156 11.8923 258.269 11.8923C256.238 11.8923 254.206 12.3162 252.389 13.0582C250.571 13.8002 248.968 14.8602 247.578 16.2382C246.188 17.6162 245.119 19.2062 244.37 20.9022C242.874 24.6122 242.874 28.8522 244.37 32.5622C245.119 34.3643 246.188 35.9542 247.578 37.2262C250.464 39.9822 254.206 41.4662 258.269 41.4662C261.156 41.4662 263.722 40.8302 265.86 39.6642C267.891 38.4982 269.602 36.9082 270.885 35.0002C271.206 34.5762 271.206 34.0462 270.992 33.5162C270.778 32.9862 270.457 32.5622 270.137 32.2442ZM300.179 38.0742L291.305 25.0362L298.896 15.0722C299.217 14.6482 299.324 14.0122 299.217 13.4822C299.11 13.0582 298.682 12.6342 297.827 12.6342H291.84C291.519 12.6342 291.199 12.7402 290.878 12.8462C290.45 13.0582 290.236 13.2702 290.022 13.6942L283.928 22.1742H282.432V2.14025C282.432 1.71625 282.325 1.39825 282.004 1.08025C281.683 0.76225 281.362 0.65625 280.935 0.65625H275.268C274.841 0.65625 274.52 0.76225 274.199 1.08025C273.878 1.39825 273.772 1.71625 273.772 2.14025V39.0282C273.772 39.4522 273.985 39.8762 274.199 40.0882C274.52 40.4062 274.841 40.5122 275.268 40.5122H280.935C281.362 40.5122 281.683 40.3002 282.004 40.0882C282.325 39.7702 282.432 39.4522 282.432 39.0282V29.2762H284.035L290.664 39.4522C291.092 40.1942 291.84 40.6182 292.588 40.6182H298.896C299.859 40.6182 300.286 40.1942 300.393 39.7702C300.607 39.2402 300.5 38.6042 300.179 38.0742ZM159.267 12.6342H152.959C152.531 12.6342 151.997 12.7402 151.676 13.1642C151.355 13.4822 151.141 13.8002 151.141 14.2242L146.437 31.3962H145.261L140.236 14.1182C140.129 13.8002 140.022 13.3762 139.702 13.0582C139.381 12.7402 138.953 12.5282 138.526 12.5282H132.004C131.149 12.5282 130.614 12.8462 130.4 13.3762C130.186 13.9062 130.186 14.4362 130.4 14.8602L138.419 39.1342C138.526 39.4522 138.74 39.8762 139.06 40.0882C139.381 40.4062 139.809 40.5122 140.236 40.5122H143.658L143.337 41.2542L142.588 43.4802C142.375 44.1162 141.947 44.7522 141.305 45.2822C140.771 45.7062 140.129 45.9182 139.381 45.9182C138.846 45.9182 138.205 45.8122 137.67 45.6003C137.136 45.3882 136.601 45.0702 136.174 44.7522C135.746 44.4342 135.211 44.3282 134.784 44.3282H134.677C134.035 44.3282 133.501 44.6462 133.287 45.1762L131.256 48.1442C130.4 49.4162 130.935 50.2642 131.469 50.6882C132.539 51.6422 133.821 52.3842 135.211 52.9142C136.708 53.4442 138.312 53.6562 140.022 53.6562C142.909 53.6562 145.368 52.9142 147.186 51.3242C149.11 49.6282 150.5 47.4022 151.248 44.9642L160.55 14.9662C160.764 14.4362 160.764 13.9062 160.55 13.3762C160.55 12.9522 160.122 12.6342 159.267 12.6342Z" fill="#011B33"/>
</g>
<defs>
<clipPath id="clip0_386_249">
<rect width="300" height="53" fill="white" transform="translate(0.5 0.65625)"/>
</clipPath>
</defs>
</svg>
